<?xml version="1.0" standalone="no"?>
<!DOCTYPE svg PUBLIC "-//W3C//DTD SVG 20010904//EN"
 "http://www.w3.org/TR/2001/REC-SVG-20010904/DTD/svg10.dtd">
<svg version="1.0" xmlns="http://www.w3.org/2000/svg"
 width="192.000000pt" height="192.000000pt" viewBox="0 0 192.000000 192.000000"
 preserveAspectRatio="xMidYMid meet">
<metadata>
Created for Jumaa Almarzouk Portfolio
</metadata>
<g transform="translate(0.000000,192.000000) scale(0.100000,-0.100000)"
fill="#3b82f6" stroke="none">
<path d="M0 960 l0 -960 960 0 960 0 0 960 0 960 -960 0 -960 0 0 -960z m820
490 c0 -218 3 -420 6 -449 l7 -54 -91 7 -92 7 0 449 0 450 85 0 85 0 0 -410z
m440 -95 c65 -28 100 -71 120 -145 8 -30 15 -117 18 -217 l4 -163 -90 0 -91 0
-3 178 c-3 164 -5 180 -25 212 -33 50 -84 70 -167 64 l-66 -4 0 -225 0 -225
-90 0 -90 0 0 320 0 320 85 0 85 0 0 -39 0 -39 38 27 c43 31 118 55 182 59 25
2 60 -7 90 -23z"/>
</g>
</svg>
